<svg xmlns="http://www.w3.org/2000/svg" xmlns:xlink="http://www.w3.org/1999/xlink" version="1.1" id="order" x="0px" y="0px" width="100px" height="100px" viewBox="0 0 100 100" enable-background="new 0 0 100 100" xml:space="preserve">
<path fill="#aaaaaa" d="M13,8c2.761,0,5,2.239,5,5s-2.239,5-5,5s-5-2.239-5-5S10.239,8,13,8z M13,23c2.761,0,5,2.239,5,5s-2.239,5-5,5s-5-2.239-5-5  S10.239,23,13,23z M13,38c2.761,0,5,2.239,5,5s-2.239,5-5,5s-5-2.239-5-5S10.239,38,13,38z M13,53c2.761,0,5,2.239,5,5s-2.239,5-5,5  s-5-2.239-5-5S10.239,53,13,53z M13,68c2.761,0,5,2.239,5,5s-2.239,5-5,5s-5-2.239-5-5S10.239,68,13,68z M13,83c2.761,0,5,2.239,5,5  s-2.239,5-5,5s-5-2.239-5-5S10.239,83,13,83z M28,8c2.761,0,5,2.239,5,5s-2.239,5-5,5s-5-2.239-5-5S25.239,8,28,8z M28,23  c2.761,0,5,2.239,5,5s-2.239,5-5,5s-5-2.239-5-5S25.239,23,28,23z M28,38c2.761,0,5,2.239,5,5s-2.239,5-5,5s-5-2.239-5-5  S25.239,38,28,38z M28,53c2.761,0,5,2.239,5,5s-2.239,5-5,5s-5-2.239-5-5S25.239,53,28,53z M28,68c2.761,0,5,2.239,5,5s-2.239,5-5,5  s-5-2.239-5-5S25.239,68,28,68z M28,83c2.761,0,5,2.239,5,5s-2.239,5-5,5s-5-2.239-5-5S25.239,83,28,83z M43,8c2.761,0,5,2.239,5,5  s-2.239,5-5,5s-5-2.239-5-5S40.239,8,43,8z M43,23c2.761,0,5,2.239,5,5s-2.239,5-5,5s-5-2.239-5-5S40.239,23,43,23z M43,38  c2.761,0,5,2.239,5,5s-2.239,5-5,5s-5-2.239-5-5S40.239,38,43,38z M43,53c2.761,0,5,2.239,5,5s-2.239,5-5,5s-5-2.239-5-5  S40.239,53,43,53z M43,68c2.761,0,5,2.239,5,5s-2.239,5-5,5s-5-2.239-5-5S40.239,68,43,68z M43,83c2.761,0,5,2.239,5,5s-2.239,5-5,5  s-5-2.239-5-5S40.239,83,43,83z M58,8c2.761,0,5,2.239,5,5s-2.239,5-5,5s-5-2.239-5-5S55.239,8,58,8z M58,23c2.761,0,5,2.239,5,5  s-2.239,5-5,5s-5-2.239-5-5S55.239,23,58,23z M58,38c2.761,0,5,2.239,5,5s-2.239,5-5,5s-5-2.239-5-5S55.239,38,58,38z M58,53  c2.761,0,5,2.239,5,5s-2.239,5-5,5s-5-2.239-5-5S55.239,53,58,53z M58,68c2.761,0,5,2.239,5,5s-2.239,5-5,5s-5-2.239-5-5  S55.239,68,58,68z M58,83c2.761,0,5,2.239,5,5s-2.239,5-5,5s-5-2.239-5-5S55.239,83,58,83z M73,8c2.761,0,5,2.239,5,5s-2.239,5-5,5  s-5-2.239-5-5S70.239,8,73,8z M73,23c2.761,0,5,2.239,5,5s-2.239,5-5,5s-5-2.239-5-5S70.239,23,73,23z M73,38c2.761,0,5,2.239,5,5  s-2.239,5-5,5s-5-2.239-5-5S70.239,38,73,38z M73,53c2.761,0,5,2.239,5,5s-2.239,5-5,5s-5-2.239-5-5S70.239,53,73,53z M73,68  c2.761,0,5,2.239,5,5s-2.239,5-5,5s-5-2.239-5-5S70.239,68,73,68z M73,83c2.761,0,5,2.239,5,5s-2.239,5-5,5s-5-2.239-5-5  S70.239,83,73,83z M88,8c2.761,0,5,2.239,5,5s-2.239,5-5,5s-5-2.239-5-5S85.239,8,88,8z M88,23c2.761,0,5,2.239,5,5s-2.239,5-5,5  s-5-2.239-5-5S85.239,23,88,23z M88,38c2.761,0,5,2.239,5,5s-2.239,5-5,5s-5-2.239-5-5S85.239,38,88,38z M88,53c2.761,0,5,2.239,5,5  s-2.239,5-5,5s-5-2.239-5-5S85.239,53,88,53z M88,68c2.761,0,5,2.239,5,5s-2.239,5-5,5s-5-2.239-5-5S85.239,68,88,68z M88,83  c2.761,0,5,2.239,5,5s-2.239,5-5,5s-5-2.239-5-5S85.239,83,88,83z"/>
</svg>